<svg xmlns="http://www.w3.org/2000/svg" version="1.1" xmlns:xlink="http://www.w3.org/1999/xlink" xmlns:svgjs="http://svgjs.dev/svgjs" width="100%" height="100%" viewBox="0 0 1000 600"><rect width="1000" height="600" x="0" y="0" fill="#191919"/><g><circle r="166.66666666666666" cx="329.5409800211588" cy="351.76321642459556" fill="black" transform="matrix(0.7674626801910313,0,0,0.7674626801910314,0,30.03482861258395)"/><path d="M247.27622040834035 359.22264513077107L247.27622040834035 359.22264513077107Q235.9058487666676 360.80413567085986 228.434669318662 360.80413567085986L228.434669318662 360.80413567085986Q225.87156396058708 360.80413567085986 225.87156396058708 358.8409060348876L225.87156396058708 358.8409060348876Q225.87156396058708 354.3145710408404 232.06119072955522 349.32469571607754Q238.25081749852336 344.3075533130373 252.18429449827102 340.5719635890345L252.18429449827102 340.5719635890345Q258.4829895803488 318.1856923232951 266.5267776721796 299.5350107815585L266.5267776721796 299.5350107815585Q246.89448131245683 300.5166255995447 234.32435822657882 312.51414004159744L234.32435822657882 312.51414004159744Q231.18864422467868 315.6498540434976 229.2254145887064 317.4222141315281Q227.26218495273412 319.16730714128124 225.7897627257549 319.16730714128124Q224.3173404987757 319.16730714128124 222.9267195066287 316.82233840942547Q221.56336559275906 314.4773696775697 221.56336559275906 310.5509104056252L221.56336559275906 310.5509104056252Q221.7542351407008 295.4176819616722 241.98640722252617 286.01053995597175Q262.19131222607416 276.5761308719939 291.8578933918774 276.76700041993564L291.8578933918774 276.76700041993564L350.7547824710456 277.74861523792174Q356.0445956568597 277.74861523792174 356.0445956568597 281.86594405780806L356.0445956568597 281.86594405780806Q356.0445956568597 283.06569550201334 354.463105116771 286.09234119080395Q352.9088816549596 289.1462539578719 351.7363972890317 292.66370705565555L351.7363972890317 292.66370705565555Q349.1732919309568 299.75314740777765 340.720497664965 299.75314740777765L340.720497664965 299.75314740777765L334.44906966116474 299.75314740777765L308.32720867142257 299.5350107815585L293.221247305747 299.5350107815585Q291.63975676565826 310.74177995356695 283.78683822176913 336.0728956732647L283.78683822176913 336.0728956732647L319.7248473913727 336.64550431708994Q322.86056139327286 336.64550431708994 322.86056139327286 340.38109404109275L322.86056139327286 340.38109404109275Q322.86056139327286 341.5535784070206 321.8789465752867 344.4984228609791Q320.89733175730055 347.44326731493743 320.1065864872562 350.5789813168376L320.1065864872562 350.5789813168376Q318.55236302544483 357.06854594685706 313.45341938757235 357.06854594685706L313.45341938757235 357.06854594685706L283.5959686738274 355.70519203298744L281.0601303940299 355.70519203298744Q279.8603789498246 355.70519203298744 278.30615548801325 355.8960615809292L278.30615548801325 355.8960615809292Q268.081001133991 393.38829421234414 268.081001133991 415.17468975598086L268.081001133991 415.17468975598086Q268.081001133991 426.76319802387275 245.50386032030983 426.76319802387275L245.50386032030983 426.76319802387275Q240.59578623037913 426.76319802387275 239.7232397255026 421.7460556208325Q238.850693220626 416.7561802960696 238.850693220626 408.49425557801965L238.850693220626 408.49425557801965Q238.850693220626 390.8251888542692 247.27622040834035 359.22264513077107ZM370.1689422045491 403.20444239220546Q364.4973899228514 412.22984530202245 359.67111706775296 418.41947207099065Q354.8721112909318 424.60909883995873 351.92726683697344 424.60909883995873L351.92726683697344 424.60909883995873Q346.2284474769984 424.60909883995873 341.7021124829512 422.0459934818838Q337.2030445671814 419.5101552020863 337.39391411512315 416.7561802960696L337.39391411512315 416.7561802960696Q337.39391411512315 416.5653107481279 339.54801329903717 414.00220539005295L339.54801329903717 414.00220539005295Q352.11813638491515 398.89624402437744 364.08838374869055 383.381276484541L364.08838374869055 383.381276484541Q359.9710549288043 368.0571784926463 356.4263347527432 363.7489801248183L356.4263347527432 363.7489801248183Q354.8721112909318 361.785750488846 352.9088816549596 361.9766200367877L352.9088816549596 361.9766200367877Q345.437702206954 361.9766200367877 342.11111865711206 357.85929121690145Q338.75726802899277 353.7419623970152 338.75726802899277 349.59736649885144L338.75726802899277 349.59736649885144Q338.75726802899277 342.7260627729485 344.37428615413563 334.87314422905945Q349.96403720100113 327.0202256851703 356.91714216173625 327.0202256851703Q363.8975142007488 327.0202256851703 371.1505570225353 334.6004734462855Q378.4308669225991 342.15345412912325 384.1296862825742 354.50544058878216L384.1296862825742 354.50544058878216L384.7022949263994 356.4686702247544Q387.26540028447437 353.33295622285425 390.2102447384327 350.0063726730124L390.2102447384327 350.0063726730124Q400.8171381883385 336.8363738650317 402.7803678243108 333.1280512193063Q404.74359746028307 329.3924614953035 407.08856619213884 329.3924614953035L407.08856619213884 329.3924614953035Q412.1875098300112 329.3924614953035 417.2864534678837 331.5465606792175Q422.4126641840335 333.70065986313153 422.30359587092397 337.43624958713434Q422.1945275578143 341.17183931113715 419.95862713906814 343.81674590404424Q417.69545964204457 346.46165249695133 413.57813082215824 350.0881739078445Q409.43353492399456 353.7419623970152 403.54384601607774 359.22264513077107Q397.6541571081609 364.73059494280443 390.40111428637454 373.9468674005631L390.40111428637454 373.9468674005631Q395.5000579242469 388.6710896703552 397.4632875602192 392.7884184902415L397.4632875602192 392.7884184902415Q401.98962255426636 401.84108847833585 405.9160818262109 401.84108847833585L405.9160818262109 401.84108847833585Q408.86092628016934 401.84108847833585 413.16912464799736 398.10549875433304Q417.5045900941028 394.36990903033023 421.81278846193084 389.95264234939265Q426.12098682975886 385.535375668455 429.77477531892947 381.79978594445225Q433.4012967298227 378.06419622044945 434.76465064369233 378.06419622044945L434.76465064369233 378.06419622044945Q437.51862554970904 378.06419622044945 437.51862554970904 384.74463039841066L437.51862554970904 384.74463039841066Q437.51862554970904 398.48723785021656 423.6669497847936 411.43910003197806Q409.8425410981555 424.418229292017 394.1367040103773 424.418229292017L394.1367040103773 424.418229292017Q386.66552456237173 424.418229292017 380.88490396756447 418.41947207099065Q375.0770162944798 412.4207148499642 370.1689422045491 403.20444239220546L370.1689422045491 403.20444239220546Z " fill="white" transform="matrix(0.7674626801910313,0,0,0.7674626801910314,0,30.03482861258395)"/><path d="M605.2211740732496 359.117863747093L605.2211740732496 359.117863747093Q593.8652523661979 360.697344464141 586.4035675994539 360.697344464141L586.4035675994539 360.697344464141Q583.8437195407901 360.697344464141 583.8437195407901 358.736609780909L583.8437195407901 358.736609780909Q583.8437195407901 354.2160270390131 590.0254802782019 349.2324930524652Q596.2072410156138 344.22172663976124 610.1230107813296 340.49088425638934L610.1230107813296 340.49088425638934Q616.4137012233655 318.13306238231365 624.4472669393854 299.50608289160994L624.4472669393854 299.50608289160994Q604.8399201070656 300.4864502332259 592.2857716491499 312.46871774186576L592.2857716491499 312.46871774186576Q589.1540426412099 315.60044674980566 587.1933079579779 317.37055444994564Q585.232573274746 319.11342972392964 583.762022262322 319.11342972392964Q582.291471249898 319.11342972392964 580.902617515942 316.7714410745137Q579.5409962081421 314.42945242509774 579.5409962081421 310.5079830586338L579.5409962081421 310.5079830586338Q579.7316231912341 295.393986542054 599.9380833989858 285.99879951823414Q620.1173111805814 276.5763800682583 649.746190838309 276.76700705135033L649.746190838309 276.76700705135033L708.568231335268 277.74737439296626Q713.8513220095319 277.74737439296626 713.8513220095319 281.8594707425222L713.8513220095319 281.8594707425222Q713.8513220095319 283.0576974933862 712.2718412924839 286.08049679670216Q710.719593001592 289.1305285261741 709.548598676884 292.643511500298L709.548598676884 292.643511500298Q706.9887506182201 299.72394230085797 698.5466985098602 299.72394230085797L698.5466985098602 299.72394230085797L692.2832404939803 299.72394230085797L666.1945762365327 299.50608289160994L651.1078121461089 299.50608289160994Q649.5283314290609 310.6986100417258 641.685392696133 335.99753394064936L641.685392696133 335.99753394064936L677.5777303697405 336.5694148899254Q680.7094593776804 336.5694148899254 680.7094593776804 340.3002572732973L680.7094593776804 340.3002572732973Q680.7094593776804 341.47125159800527 679.7290920360645 344.41235362285323Q678.7487246944486 347.3534556477012 677.9589843359245 350.48518465564115L677.9589843359245 350.48518465564115Q676.4067360450325 356.96650208076903 671.3142723538606 356.96650208076903L671.3142723538606 356.96650208076903L641.494765713041 355.60488077296907L638.9621500805331 355.60488077296907Q637.7639233296692 355.60488077296907 636.2116750387772 355.79550775606106L636.2116750387772 355.79550775606106Q625.9995152302773 393.2400937205605 625.9995152302773 414.99880221920415L625.9995152302773 414.99880221920415Q625.9995152302773 426.57258333550396 603.4510663731097 426.57258333550396L603.4510663731097 426.57258333550396Q598.5492296650298 426.57258333550396 597.6777920280379 421.56181692280006Q596.8063543910457 416.5782829362521 596.8063543910457 408.3268578109843L596.8063543910457 408.3268578109843Q596.8063543910457 390.68024566189655 605.2211740732496 359.117863747093ZM732.0970475340516 402.25402677819636L732.0970475340516 402.25402677819636Q747.3744386075674 402.25402677819636 761.6986947656233 390.1083647126205L761.6986947656233 390.1083647126205Q766.9817854398871 385.5877819707246 770.331373857075 381.7752423088847Q773.6537298481071 377.93547022088876 775.4238375482471 377.93547022088876L775.4238375482471 377.93547022088876Q778.174312590003 377.93547022088876 778.174312590003 383.43642030440066Q778.174312590003 388.93737038791255 775.233210565155 395.69101207460045Q772.292108540307 402.44465376128835 765.4295371489952 408.92597118641623L765.4295371489952 408.92597118641623Q748.5454329322754 424.802475635364 719.134412683796 424.802475635364L719.134412683796 424.802475635364Q695.8234558942603 424.802475635364 687.3814037859004 407.9456038448003L687.3814037859004 407.9456038448003Q684.4403017610524 402.0633997951044 684.4403017610524 391.0887320542365Q684.4403017610524 380.11406431336866 688.7430250937003 368.24072650935284Q693.0729808525043 356.3673887053371 700.2351089315322 347.76194204004116Q707.3700045844041 339.1292629485893 716.7924240343799 334.3091235189774Q726.2148434843558 329.5162165155215 736.8899545375076 329.5162165155215Q747.5650655906595 329.5162165155215 753.3655723618874 334.7993071897854Q759.1388467069593 340.1096302902053 759.1388467069593 348.5244499724092Q759.1388467069593 356.96650208076903 754.9178206527794 362.35852245965697Q750.7240270247554 367.7505428385449 744.0520826165355 371.37245551729285Q737.3801382083157 374.9943681960408 729.2376427876717 377.85377294242073Q721.0951473670278 380.68594526264474 713.2522086341 384.2261606629246L713.2522086341 384.2261606629246L713.2522086341 389.12799737100454Q713.470068043348 396.18119574540844 719.134412683796 399.1222977702564Q724.8259897503998 402.0633997951044 732.0970475340516 402.25402677819636ZM728.7474591168638 346.9722016815172L728.7474591168638 346.9722016815172Q718.5625317345199 346.9722016815172 714.6410623680559 370.69164486339287L714.6410623680559 370.69164486339287Q718.7531587176119 367.9411698216369 722.3750713963599 365.7898081553129Q725.9969840751078 363.63844648898896 728.7474591168638 361.677711805757L728.7474591168638 361.677711805757Q734.6296631665597 357.34775604695307 734.8202901496517 351.8740383895971L734.8202901496517 351.8740383895971Q734.8202901496517 346.9722016815172 728.7474591168638 346.9722016815172ZM807.9665868046665 403.04376713672036Q802.2750097380626 412.0577001943562 797.4821027346067 418.2394609317681Q792.6619633049947 424.42122166918 789.7208612801469 424.42122166918L789.7208612801469 424.42122166918Q784.0565166396989 424.42122166918 779.5359338978029 421.861373610516Q775.0153511559071 419.32875797800807 775.233210565155 416.5782829362521L775.233210565155 416.5782829362521Q775.233210565155 416.38765595316016 777.384572231479 413.8278078944962L777.384572231479 413.8278078944962Q789.9387206893948 398.74104380407243 801.8937557718787 383.2457933213086L801.8937557718787 383.2457933213086Q797.7816594223227 367.9411698216369 794.2414440220427 363.63844648898896L794.2414440220427 363.63844648898896Q792.6619633049947 361.677711805757 790.7012286217628 361.868338788849L790.7012286217628 361.868338788849Q783.2667762811749 361.868338788849 779.917187863987 357.75624243929303Q776.594831872955 353.6441460897371 776.594831872955 349.50481731402516L776.594831872955 349.50481731402516Q776.594831872955 342.6422459227133 782.1774792349349 334.7993071897854Q787.7601265969149 326.9563684568575 794.7316276928507 326.9563684568575Q801.7031287887867 326.9563684568575 808.9469541462825 334.5269829282254Q816.1907795037785 342.0703649734373 821.8823565703823 354.4066540221051L821.8823565703823 354.4066540221051L822.4814699458143 356.3673887053371Q825.0140855783222 353.2356596973971 827.9551876031702 349.9133037063651L827.9551876031702 349.9133037063651Q838.5486013778541 336.76004187301737 840.5093360610861 333.05643191580145Q842.470070744318 329.3255895324295 844.8392918198899 329.3255895324295L844.8392918198899 329.3255895324295Q849.9317555110619 329.3255895324295 855.0242192022338 331.47695119875345Q860.1166828934057 333.6283128650774 860.0349856149377 337.3591552484494Q859.9260559103137 341.0899976318213 857.6657645393657 343.73154296895325Q855.4054731684178 346.3730883060852 851.2933768188618 349.99500098483315Q847.1812804693059 353.6441460897371 841.29907641961 359.117863747093Q835.4168723699141 364.61881383060495 828.1730470124182 373.8233738713328L828.1730470124182 373.8233738713328Q833.26551070359 388.5288839955726 835.226245386822 392.64098034512847L835.226245386822 392.64098034512847Q839.719595702562 401.68214582892034 843.6410650690259 401.68214582892034L843.6410650690259 401.68214582892034Q846.582167093874 401.68214582892034 850.9121228526778 397.95130344554843Q855.2148461853258 394.22046106217647 859.5448019441297 389.8088080249046Q863.8475252767776 385.39715498763263 867.4694379555256 381.66631260426067Q871.0913506342736 377.93547022088876 872.4802043682296 377.93547022088876L872.4802043682296 377.93547022088876Q875.2306794099854 377.93547022088876 875.2306794099854 384.60741462910863L875.2306794099854 384.60741462910863Q875.2306794099854 398.3325574117324 861.3966069227376 411.26795983583224Q847.5625344354899 424.230594686088 831.8766569696342 424.230594686088L831.8766569696342 424.230594686088Q824.4422046290463 424.230594686088 818.6416978578184 418.2394609317681Q812.8684235127464 412.24832717744823 807.9665868046665 403.04376713672036L807.9665868046665 403.04376713672036ZM985.7943296033437 377.36358927161274L985.7943296033437 377.36358927161274Q989.3345450036237 377.36358927161274 989.3345450036237 386.37752232924856L989.3345450036237 386.37752232924856Q989.3345450036237 391.2793590373285 985.2224486540678 398.2508601332644Q981.1103523045118 405.1951288030443 974.5201051747599 410.9956355742722Q967.9570904711641 416.7689099193441 959.9235247551442 420.49975230271605Q951.8899590391243 424.230594686088 944.2376472892884 424.230594686088L944.2376472892884 424.230594686088Q933.8348604976966 424.230594686088 930.3218775235725 405.98486916156827L930.3218775235725 405.98486916156827Q925.2294138324007 414.42692126992813 916.9779887071328 419.8189416488161Q908.753796008021 425.210962027704 894.9197235207732 425.210962027704Q881.1128834596814 425.210962027704 872.6708313513216 416.5782829362521Q864.2287792429617 407.9456038448003 864.4466386522097 395.58208236997643L864.4466386522097 395.58208236997643Q864.4466386522097 362.24959275503295 886.5866011170374 343.05073231505327L886.5866011170374 343.05073231505327Q896.0090205670132 335.0171665990334 904.151515987657 332.45731854036944Q912.2667789821448 329.89747048170545 921.3079444659368 329.89747048170545Q930.3218775235725 329.89747048170545 936.0134545901765 333.05643191580145L936.0134545901765 333.05643191580145Q938.7366972057764 327.3648548491975 942.2769126060564 327.3648548491975L942.2769126060564 327.3648548491975Q949.1394839973684 327.3648548491975 955.3212447347802 333.3287561773614Q961.5030054721922 339.3198899316813 961.5030054721922 344.6029806059453L961.5030054721922 344.6029806059453Q958.7525304304362 351.08429803107316 953.4422073300162 360.098231088709L953.4422073300162 360.098231088709Q951.8899590391243 369.11216414634487 951.8899590391243 385.39715498763263Q951.8899590391243 401.68214582892034 956.0020553886802 401.68214582892034L956.0020553886802 401.68214582892034Q961.094519079852 401.68214582892034 980.7018659121718 381.2850586380767L980.7018659121718 381.2850586380767Q984.2420813124518 377.36358927161274 985.7943296033437 377.36358927161274ZM893.2585455252572 389.12799737100454L893.2585455252572 389.12799737100454Q893.2585455252572 404.21476146142834 904.4238402492169 404.21476146142834L904.4238402492169 404.21476146142834Q916.4061077578567 404.02413447833635 924.2490464907846 391.4699860204205L924.2490464907846 391.4699860204205Q926.9722891063847 387.16726268777256 928.7423968065247 380.87657224573667L928.7423968065247 380.87657224573667Q928.7423968065247 358.927236764001 932.6638661729886 343.24135929814526L932.6638661729886 343.24135929814526Q916.7873617240408 346.3730883060852 905.022953624649 358.54598279781703Q893.2585455252572 370.69164486339287 893.2585455252572 389.12799737100454ZM1086.9900251990382 364.01970045517294L1086.9900251990382 364.01970045517294Q1086.9900251990382 357.56561545620104 1079.5283404322943 357.56561545620104L1079.5283404322943 357.56561545620104Q1074.4358767411225 357.56561545620104 1068.1451862990866 367.4509861508289Q1061.8817282832065 377.36358927161274 1059.1312532414506 388.7195109786646L1059.1312532414506 388.7195109786646L1059.1312532414506 389.12799737100454Q1059.1312532414506 395.79994177922447 1061.2009176293066 402.8531401536284Q1063.2433495910066 409.9063385280322 1063.2433495910066 412.6568135697882L1063.2433495910066 412.6568135697882Q1063.2433495910066 419.32875797800807 1046.5771047835349 425.78284297697996L1046.5771047835349 425.78284297697996Q1044.044489151027 426.76321031859595 1042.083754467795 426.76321031859595L1042.083754467795 426.76321031859595Q1037.181917759715 426.76321031859595 1035.302880354951 421.670746627424Q1033.451075376343 416.5782829362521 1033.451075376343 407.8366741401762Q1033.451075376343 399.1222977702564 1033.941259047151 391.3882887419525Q1034.431442717959 383.62704728749264 1034.921626388767 377.06403258389673Q1035.411810059575 370.5010178803008 1035.9019937303829 365.4902514675969Q1036.392177401191 360.506717481049 1036.392177401191 357.34775604695307L1036.392177401191 357.34775604695307Q1036.392177401191 350.7030440648891 1030.319346368403 350.7030440648891Q1024.2465153356152 350.7030440648891 1016.1857171934392 364.9183705183209Q1008.1521514774195 379.13369697175267 1008.1521514774195 387.46681937548857Q1008.1521514774195 395.79994177922447 1010.2218158652754 402.8531401536284Q1012.2642478269754 409.9063385280322 1012.2642478269754 412.6568135697882L1012.2642478269754 412.6568135697882Q1012.2642478269754 419.32875797800807 995.5980030195036 425.78284297697996L995.5980030195036 425.78284297697996Q993.0653873869957 426.76321031859595 991.1046527037637 426.76321031859595L991.1046527037637 426.76321031859595Q986.2028159956837 426.76321031859595 984.3237785909198 421.670746627424Q982.4719736123118 416.5782829362521 982.4719736123118 405.98486916156827L982.4719736123118 405.98486916156827Q982.4719736123118 378.15332963013674 984.6233352786358 365.7898081553129L984.6233352786358 365.7898081553129Q987.5644373034838 347.5440826307932 997.9672240950756 331.28632421566147L997.9672240950756 331.28632421566147Q1001.4802070691994 325.7853741321495 1005.6195358449114 325.7853741321495L1005.6195358449114 325.7853741321495Q1012.0736208438833 325.7853741321495 1017.5745709273953 336.3787879068334L1017.5745709273953 336.3787879068334Q1019.1268192182872 339.1292629485893 1019.9165595768112 341.47125159800527L1019.9165595768112 341.47125159800527Q1029.338979026787 329.70684349861347 1042.083754467795 329.70684349861347L1042.083754467795 329.70684349861347Q1050.4985741499988 329.70684349861347 1057.1705185582186 335.2894908605934Q1063.8424629664385 340.8993706487293 1063.8424629664385 349.3141903309332L1063.8424629664385 349.3141903309332L1063.8424629664385 351.46555199725714Q1075.7974980489223 336.5694148899254 1093.0628562318261 336.5694148899254L1093.0628562318261 336.5694148899254Q1103.6562700065099 336.5694148899254 1109.129987663866 342.0703649734373Q1114.6309377473776 347.5440826307932 1114.6309377473776 355.60488077296907Q1114.6309377473776 363.63844648898896 1113.4599434226698 370.09253148796085Q1112.2617166718057 376.57384891308874 1110.791165659382 382.2654259796927Q1109.320614646958 387.95700304629656 1108.1496203222498 392.36865608356845Q1106.9786259975417 396.78030912084046 1106.9786259975417 399.23122747488037Q1106.9786259975417 401.68214582892034 1108.55810671459 401.68214582892034L1108.55810671459 401.68214582892034Q1111.4992087394378 401.68214582892034 1115.8019320720857 397.95130344554843Q1120.1046554047339 394.22046106217647 1124.4346111635375 389.8088080249046Q1128.7373344961857 385.39715498763263 1132.3592471749334 381.66631260426067Q1136.0083922798374 377.93547022088876 1137.3700135876375 377.93547022088876L1137.3700135876375 377.93547022088876Q1140.1204886293935 377.93547022088876 1140.1204886293935 384.60741462910863L1140.1204886293935 384.60741462910863Q1140.1204886293935 398.3325574117324 1126.2864161421455 411.26795983583224Q1112.479576081054 424.230594686088 1096.793698615198 424.230594686088L1096.793698615198 424.230594686088Q1082.6600694402343 424.230594686088 1082.6600694402343 398.5231843948244L1082.6600694402343 398.5231843948244Q1082.6600694402343 392.0690993958525 1084.8114311065583 380.68594526264474Q1086.9900251990382 369.33002355559285 1086.9900251990382 364.01970045517294Z " fill="white" transform="matrix(0.7674626801910313,0,0,0.7674626801910314,0,30.03482861258395)"/></g></svg>